<?xml version="1.0" encoding="UTF-8"?>
<svg width="40" height="40" viewBox="0 0 40 40" fill="none" xmlns="http://www.w3.org/2000/svg">
  <circle cx="20" cy="20" r="18" fill="#1E3A8A" stroke="white" stroke-width="2"/>
  <path d="M27 20.86C26.94 20.86 26.87 20.85 26.8 20.83L24.37 20.22C24.26 20.19 24.16 20.12 24.08 20.03L22.97 18.74C22.61 18.32 22.13 18.03 21.59 17.92L19.59 17.48C19.28 17.41 18.95 17.51 18.73 17.73L17.45 19.02C17.29 19.17 17.08 19.26 16.85 19.26H14.88C14.44 19.26 14.01 19.43 13.69 19.74L12.37 21.07C12.16 21.27 11.84 21.27 11.63 21.07C11.42 20.86 11.42 20.53 11.63 20.33L12.95 19C13.43 18.53 14.07 18.27 14.74 18.27H16.71L17.83 17.15C18.27 16.71 18.93 16.51 19.57 16.64L21.57 17.08C22.33 17.23 23.02 17.63 23.53 18.22L24.47 19.31L26.69 19.86C26.95 19.92 27.13 20.15 27.13 20.42C27.13 20.67 26.88 20.86 26.57 20.86H27ZM28.34 17.02L25.34 16.4C25 16.33 24.64 16.42 24.37 16.64L22.8 17.93C22.71 18.01 22.59 18.04 22.47 18.02L19.85 17.56C19.52 17.49 19.18 17.58 18.92 17.79L17.21 19.17C17.12 19.25 17 19.28 16.88 19.26L14.96 18.93C14.51 18.85 14.05 18.93 13.66 19.16L12.37 19.9C12.11 20.05 11.78 19.95 11.63 19.69C11.48 19.43 11.58 19.1 11.84 18.95L13.13 18.21C13.7 17.87 14.36 17.75 15 17.87L16.76 18.17L18.31 16.91C18.78 16.52 19.37 16.36 19.96 16.47L22.58 16.93L24 15.77C24.5 15.35 25.14 15.18 25.77 15.3L28.77 15.92C29.07 15.97 29.29 16.24 29.29 16.54C29.29 16.8 29.04 17 28.73 17L28.34 17.02ZM13 23C12.45 23 12 22.55 12 22C12 21.45 12.45 21 13 21C13.55 21 14 21.45 14 22C14 22.55 13.55 23 13 23ZM25.88 23.22L24.37 21.71C24.16 21.5 23.84 21.5 23.63 21.71C23.42 21.92 23.42 22.25 23.63 22.46L24.8 23.63L23.63 24.8C23.42 25.01 23.42 25.34 23.63 25.55C23.74 25.66 23.88 25.71 24.02 25.71C24.16 25.71 24.3 25.66 24.41 25.55L25.58 24.38L26.75 25.55C26.86 25.66 27 25.71 27.14 25.71C27.28 25.71 27.42 25.66 27.53 25.55C27.74 25.34 27.74 25.01 27.53 24.8L26.36 23.63L27.53 22.46C27.74 22.25 27.74 21.92 27.53 21.71C27.32 21.5 27 21.5 26.79 21.71L25.58 22.92L25.88 23.22Z" fill="white"/>
</svg>
